<?xml version="1.0" encoding="UTF-8"?>
<svg width="56px" height="70px" viewBox="0 0 56 70" version="1.1" xmlns="http://www.w3.org/2000/svg" xmlns:xlink="http://www.w3.org/1999/xlink">
    <!-- Generator: Sketch 46.2 (44496) - http://www.bohemiancoding.com/sketch -->
    <title>file</title>
    <desc>Created with Sketch.</desc>
    <defs></defs>
    <g id="04---Web-Site" stroke="none" stroke-width="1" fill="none" fill-rule="evenodd">
        <g id="Landing-page" transform="translate(-694.000000, -2143.000000)" fill-rule="nonzero">
            <g id="section" transform="translate(241.000000, 2048.000000)">
                <g id="list" transform="translate(0.000000, 95.000000)">
                    <g id="#2" transform="translate(351.000000, 0.000000)">
                        <g id="file" transform="translate(102.000000, 0.000000)">
                            <path d="M45.5,29.1666667 L16.3333333,29.1666667 C15.6893333,29.1666667 15.1666667,29.6881667 15.1666667,30.3333333 C15.1666667,30.9785 15.6893333,31.5 16.3333333,31.5 L45.5,31.5 C46.144,31.5 46.6666667,30.9785 46.6666667,30.3333333 C46.6666667,29.6881667 46.144,29.1666667 45.5,29.1666667 Z" id="Shape" fill="#196DFF"></path>
                            <path d="M16.3333333,22.1666667 L28,22.1666667 C28.644,22.1666667 29.1666667,21.6451667 29.1666667,21 C29.1666667,20.3548333 28.644,19.8333333 28,19.8333333 L16.3333333,19.8333333 C15.6893333,19.8333333 15.1666667,20.3548333 15.1666667,21 C15.1666667,21.6451667 15.6893333,22.1666667 16.3333333,22.1666667 Z" id="Shape" fill="#196DFF"></path>
                            <path d="M45.5,38.5 L16.3333333,38.5 C15.6893333,38.5 15.1666667,39.0215 15.1666667,39.6666667 C15.1666667,40.3118333 15.6893333,40.8333333 16.3333333,40.8333333 L45.5,40.8333333 C46.144,40.8333333 46.6666667,40.3118333 46.6666667,39.6666667 C46.6666667,39.0215 46.144,38.5 45.5,38.5 Z" id="Shape" fill="#196DFF"></path>
                            <path d="M45.5,47.8333333 L16.3333333,47.8333333 C15.6893333,47.8333333 15.1666667,48.3548333 15.1666667,49 C15.1666667,49.6451667 15.6893333,50.1666667 16.3333333,50.1666667 L45.5,50.1666667 C46.144,50.1666667 46.6666667,49.6451667 46.6666667,49 C46.6666667,48.3548333 46.144,47.8333333 45.5,47.8333333 Z" id="Shape" fill="#196DFF"></path>
                            <path d="M45.5,57.1666667 L16.3333333,57.1666667 C15.6893333,57.1666667 15.1666667,57.6881667 15.1666667,58.3333333 C15.1666667,58.9785 15.6893333,59.5 16.3333333,59.5 L45.5,59.5 C46.144,59.5 46.6666667,58.9785 46.6666667,58.3333333 C46.6666667,57.6881667 46.144,57.1666667 45.5,57.1666667 Z" id="Shape" fill="#196DFF"></path>
                            <path d="M50.1666667,17.017 L50.1666667,0 L0,0 L0,64.1666667 L5.83333333,64.1666667 L5.83333333,70 L56,70 L56,22.8503333 L50.1666667,17.017 Z M39.6666667,9.81633333 L50.1666667,20.3163333 L52.017,22.1666667 L39.6666667,22.1666667 L39.6666667,9.81633333 Z M2.33333333,61.8333333 L2.33333333,2.33333333 L47.8333333,2.33333333 L47.8333333,14.6836667 L38.983,5.83333333 L5.83333333,5.83333333 L5.83333333,61.8333333 L2.33333333,61.8333333 Z M8.16666667,67.6666667 L8.16666667,64.1666667 L8.16666667,8.16666667 L37.3333333,8.16666667 L37.3333333,24.5 L53.6666667,24.5 L53.6666667,67.6666667 L8.16666667,67.6666667 Z" id="Shape" fill="#4A4A4A"></path>
                        </g>
                    </g>
                </g>
            </g>
        </g>
    </g>
</svg>