<svg width="67" height="70" viewBox="0 0 67 70" xmlns="http://www.w3.org/2000/svg"><title>stopwatch</title><g fill-rule="nonzero" fill="none"><path d="M35.74 44.32a4.152 4.152 0 0 0 3.04-1.702l10.923-15.101a1.167 1.167 0 0 0-1.63-1.63L32.97 36.814a4.15 4.15 0 0 0-1.699 3.038 4.153 4.153 0 0 0 1.206 3.263 4.146 4.146 0 0 0 3.263 1.206zm-2.142-4.286a1.82 1.82 0 0 1 .743-1.332l9.213-6.665-6.663 9.21a1.826 1.826 0 0 1-2.766.219c-.376-.377-.57-.9-.527-1.432z" fill="#196DFF"/><path d="M61.873 22.825c-.012-.025-.012-.05-.024-.075-.014-.023-.037-.036-.052-.058a31.716 31.716 0 0 0-4.159-5.61l2.506-2.506 1.65 1.65 4.949-4.95-4.95-4.95-4.95 4.95 1.651 1.65-2.506 2.505a31.68 31.68 0 0 0-5.61-4.16c-.022-.015-.035-.037-.059-.051-.024-.014-.05-.013-.074-.026A31.279 31.279 0 0 0 38.26 7.223v-1.39h1.75a2.92 2.92 0 0 0 2.916-2.916A2.92 2.92 0 0 0 40.008 0h-10.5a2.92 2.92 0 0 0-2.916 2.917 2.92 2.92 0 0 0 2.917 2.916h1.75v1.349c-1.26.134-2.518.34-3.762.624a1.166 1.166 0 1 0 .522 2.274 29.67 29.67 0 0 1 3.243-.556l1.252-.097c.383-.03.735-.05 1.078-.067v2.307a1.166 1.166 0 1 0 2.333 0V9.368a28.94 28.94 0 0 1 12.199 3.32l-1.15 1.991a1.167 1.167 0 0 0 2.02 1.167l1.147-1.987a29.393 29.393 0 0 1 9.067 9.067l-1.986 1.147a1.166 1.166 0 0 0 1.169 2.02l1.991-1.15a28.956 28.956 0 0 1 3.324 12.39h-2.304a1.166 1.166 0 1 0 0 2.333h2.304a28.956 28.956 0 0 1-3.324 12.388l-1.991-1.15a1.167 1.167 0 0 0-1.167 2.02l1.987 1.147a29.393 29.393 0 0 1-9.068 9.068l-1.147-1.987a1.165 1.165 0 0 0-1.593-.427 1.165 1.165 0 0 0-.427 1.594l1.15 1.991a28.94 28.94 0 0 1-12.198 3.32v-2.297a1.166 1.166 0 1 0-2.334 0v2.306a29.44 29.44 0 0 1-5.572-.72 1.162 1.162 0 0 0-1.397.876 1.166 1.166 0 0 0 .876 1.398c2.328.536 4.707.807 7.067.807.058 0 .112-.004.17-.005.008 0 .014.005.02.005.01 0 .018-.006.027-.006a31.296 31.296 0 0 0 15.423-4.168c.036-.017.074-.025.11-.046.023-.014.035-.036.058-.051A31.73 31.73 0 0 0 61.776 54.34c.023-.032.05-.056.07-.091.014-.025.013-.05.025-.075A31.276 31.276 0 0 0 66.068 38.5a31.287 31.287 0 0 0-4.195-15.675zm-.08-13.199l1.65 1.65-1.65 1.65-1.651-1.65 1.65-1.65zM33.591 7.025V3.5h-4.083a.585.585 0 0 1-.584-.583c0-.321.263-.584.584-.584h10.5c.32 0 .583.263.583.584 0 .32-.263.583-.584.583h-4.083v3.524A29.005 29.005 0 0 0 34.76 7l-.103.002L34.568 7c-.191 0-.382.013-.574.016-.135.004-.262.003-.402.008zM24.259 16.333h-5.834a1.166 1.166 0 1 0 0 2.334h5.834a1.166 1.166 0 1 0 0-2.334zM24.259 24.5H12.592a1.166 1.166 0 1 0 0 2.333h11.667a1.166 1.166 0 1 0 0-2.333zM24.259 32.667h-17.5a1.166 1.166 0 1 0 0 2.333h17.5a1.166 1.166 0 1 0 0-2.333zM24.259 40.833H2.091a1.166 1.166 0 1 0 0 2.334h22.167a1.166 1.166 0 1 0 0-2.334zM24.259 49H9.092a1.166 1.166 0 1 0 0 2.333h15.167a1.166 1.166 0 1 0 0-2.333zM24.259 57.167h-8.167a1.166 1.166 0 1 0 0 2.333h8.167a1.166 1.166 0 1 0 0-2.333z" fill="#4A4A4A"/></g></svg>