<svg width="68" height="70" viewBox="0 0 68 70" xmlns="http://www.w3.org/2000/svg"><title>list</title><g fill-rule="nonzero" fill="none"><path d="M67.443 67.923l-7.33-7.668c2.144-2.355 3.463-5.474 3.463-8.903 0-7.31-5.948-13.258-13.259-13.258-7.31 0-13.258 5.947-13.258 13.258 0 7.31 5.948 13.257 13.258 13.257 2.998 0 5.758-1.012 7.982-2.697l7.37 7.709a1.224 1.224 0 0 0 1.735.039c.49-.47.508-1.247.039-1.737zM39.515 51.351c0-5.957 4.846-10.803 10.802-10.803 5.957 0 10.802 4.846 10.802 10.803 0 5.956-4.845 10.802-10.802 10.802-5.956 0-10.802-4.846-10.802-10.802z" fill="#196DFF"/><path d="M33.375 14.737a1.227 1.227 0 1 0 0 2.456H55.48a1.227 1.227 0 1 0 0-2.456H33.375zM56.708 33.158c0-.68-.549-1.228-1.228-1.228H33.375a1.227 1.227 0 1 0 0 2.456H55.48c.68 0 1.228-.549 1.228-1.228zM25.49 8.892a1.226 1.226 0 0 0-1.73.133l-7.674 8.95-4.694-3.52A1.227 1.227 0 1 0 9.92 16.42l5.614 4.211a1.222 1.222 0 0 0 1.669-.184l8.42-9.824a1.224 1.224 0 0 0-.134-1.73zM25.49 26.085a1.226 1.226 0 0 0-1.73.133l-7.674 8.95-4.694-3.52a1.227 1.227 0 1 0-1.472 1.964l5.614 4.211a1.222 1.222 0 0 0 1.669-.184l8.42-9.824a1.224 1.224 0 0 0-.134-1.73zM23.76 44.64l-7.674 8.95-4.694-3.52a1.226 1.226 0 1 0-1.472 1.963l5.614 4.211a1.222 1.222 0 0 0 1.669-.184l8.42-9.823a1.228 1.228 0 0 0-1.864-1.596z" fill="#4A4A4A"/><path d="M32.147 63.86H15.17c-6.892 0-12.497-5.605-12.497-12.497v-36.41c0-6.892 5.605-12.497 12.497-12.497h36.41c6.89 0 12.497 5.605 12.497 12.497v25.573a1.227 1.227 0 1 0 2.456 0V14.953C66.533 6.708 59.825 0 51.58 0H15.17C6.925 0 .217 6.708.217 14.953v36.41c0 8.245 6.708 14.953 14.953 14.953h16.977a1.227 1.227 0 1 0 0-2.456z" fill="#4A4A4A"/></g></svg>