<svg width="56" height="70" viewBox="0 0 56 70" xmlns="http://www.w3.org/2000/svg"><title>file</title><g fill-rule="nonzero" fill="none"><path d="M45.5 29.167H16.333a1.166 1.166 0 1 0 0 2.333H45.5a1.166 1.166 0 1 0 0-2.333zM16.333 22.167H28a1.166 1.166 0 1 0 0-2.334H16.333a1.166 1.166 0 1 0 0 2.334zM45.5 38.5H16.333a1.166 1.166 0 1 0 0 2.333H45.5a1.166 1.166 0 1 0 0-2.333zM45.5 47.833H16.333a1.166 1.166 0 1 0 0 2.334H45.5a1.166 1.166 0 1 0 0-2.334zM45.5 57.167H16.333a1.166 1.166 0 1 0 0 2.333H45.5a1.166 1.166 0 1 0 0-2.333z" fill="#196DFF"/><path d="M50.167 17.017V0H0v64.167h5.833V70H56V22.85l-5.833-5.833zm-10.5-7.2l10.5 10.5 1.85 1.85h-12.35V9.817zM2.333 61.832v-59.5h45.5v12.35l-8.85-8.85H5.833v56h-3.5zm5.834 5.834v-59.5h29.166V24.5h16.334v43.167h-45.5z" fill="#4A4A4A"/></g></svg>