<svg width="98" height="20" viewBox="0 0 98 20" xmlns="http://www.w3.org/2000/svg"><title>Facilit.io</title><path d="M11.125 5.35H4.5v3.375H11v3.85H4.5V19h-4V1.5h10.625v3.85zM22.45 6.5h3.75V19h-3.75v-1.175c-.883 1.017-2.125 1.525-3.725 1.525-1.65 0-3.058-.637-4.225-1.913-1.167-1.275-1.75-2.837-1.75-4.687s.583-3.412 1.75-4.688c1.167-1.275 2.575-1.912 4.225-1.912 1.6 0 2.842.508 3.725 1.525V6.5zm-2.975 9.3c.883 0 1.6-.275 2.15-.825.55-.55.825-1.292.825-2.225s-.275-1.675-.825-2.225c-.55-.55-1.267-.825-2.15-.825s-1.6.275-2.15.825c-.55.55-.825 1.292-.825 2.225s.275 1.675.825 2.225c.55.55 1.267.825 2.15.825zm15.475 3.55c-1.9 0-3.48-.633-4.737-1.9-1.259-1.267-1.888-2.833-1.888-4.7s.63-3.433 1.888-4.7c1.258-1.267 2.837-1.9 4.737-1.9 1.2 0 2.304.292 3.313.875 1.008.583 1.787 1.358 2.337 2.325l-3.275 1.9c-.45-.933-1.258-1.4-2.425-1.4-.817 0-1.492.27-2.025.813-.533.541-.8 1.237-.8 2.087 0 .85.267 1.546.8 2.087.533.542 1.208.813 2.025.813 1.183 0 1.992-.467 2.425-1.4l3.275 1.875a6.171 6.171 0 0 1-2.325 2.35c-1 .583-2.108.875-3.325.875zM44.1 5.4c-.617 0-1.146-.22-1.587-.662a2.166 2.166 0 0 1-.663-1.588c0-.617.22-1.146.663-1.587.441-.442.97-.663 1.587-.663s1.146.22 1.587.662c.442.442.663.971.663 1.588 0 .617-.22 1.146-.663 1.588-.441.441-.97.662-1.587.662zM42.225 19V6.5h3.75V19h-3.75zm6.5 0V.75h3.75V19h-3.75zM57.1 5.4c-.617 0-1.146-.22-1.587-.662a2.166 2.166 0 0 1-.663-1.588c0-.617.22-1.146.663-1.587.441-.442.97-.663 1.587-.663s1.146.22 1.587.662c.442.442.663.971.663 1.588 0 .617-.22 1.146-.663 1.588-.441.441-.97.662-1.587.662zM55.225 19V6.5h3.75V19h-3.75zm13.825-8.9h-2.575v4.425c0 .5.2.817.6.95.4.133 1.058.175 1.975.125V19c-2.383.25-4.033.02-4.95-.688-.917-.708-1.375-1.97-1.375-3.787V10.1h-2V6.5h2V4.125L66.475 3v3.5h2.575v3.6zm4.5 9.25c-.65 0-1.208-.233-1.675-.7a2.285 2.285 0 0 1-.7-1.675c0-.65.233-1.208.7-1.675a2.285 2.285 0 0 1 1.675-.7c.65 0 1.208.233 1.675.7.467.467.7 1.025.7 1.675 0 .65-.233 1.208-.7 1.675-.467.467-1.025.7-1.675.7zM80.3 5.4c-.617 0-1.146-.22-1.587-.662a2.166 2.166 0 0 1-.663-1.588c0-.617.22-1.146.663-1.587.441-.442.97-.663 1.587-.663s1.146.22 1.588.662c.441.442.662.971.662 1.588 0 .617-.22 1.146-.662 1.588-.442.441-.971.662-1.588.662zM78.425 19V6.5h3.75V19h-3.75zm12.5.35c-1.85 0-3.417-.637-4.7-1.913C84.942 16.163 84.3 14.6 84.3 12.75s.642-3.412 1.925-4.688c1.283-1.275 2.85-1.912 4.7-1.912s3.417.637 4.7 1.912c1.283 1.276 1.925 2.838 1.925 4.688 0 1.85-.642 3.412-1.925 4.688-1.283 1.275-2.85 1.912-4.7 1.912zm0-3.65c.817 0 1.5-.275 2.05-.825.55-.55.825-1.258.825-2.125s-.275-1.575-.825-2.125c-.55-.55-1.233-.825-2.05-.825-.817 0-1.5.275-2.05.825-.55.55-.825 1.258-.825 2.125s.275 1.575.825 2.125c.55.55 1.233.825 2.05.825z" fill="#196DFF" fill-rule="evenodd"/></svg>