<?xml version="1.0" encoding="UTF-8"?>
<svg width="98px" height="20px" viewBox="0 0 98 20" version="1.1" xmlns="http://www.w3.org/2000/svg" xmlns:xlink="http://www.w3.org/1999/xlink">
    <!-- Generator: Sketch 46.2 (44496) - http://www.bohemiancoding.com/sketch -->
    <title>Facilit.io</title>
    <desc>Created with Sketch.</desc>
    <defs></defs>
    <g id="Symbols" stroke="none" stroke-width="1" fill="none" fill-rule="evenodd">
        <g id="header/default" transform="translate(-41.000000, -27.000000)" fill="#196DFF">
            <g id="header">
                <path d="M52.125,32.35 L45.5,32.35 L45.5,35.725 L52,35.725 L52,39.575 L45.5,39.575 L45.5,46 L41.5,46 L41.5,28.5 L52.125,28.5 L52.125,32.35 Z M63.45,33.5 L67.2,33.5 L67.2,46 L63.45,46 L63.45,44.825 C62.5666623,45.8416718 61.325008,46.35 59.725,46.35 C58.0749918,46.35 56.6666725,45.7125064 55.5,44.4375 C54.3333275,43.1624936 53.75,41.6000092 53.75,39.75 C53.75,37.8999908 54.3333275,36.3375064 55.5,35.0625 C56.6666725,33.7874936 58.0749918,33.15 59.725,33.15 C61.325008,33.15 62.5666623,33.6583282 63.45,34.675 L63.45,33.5 Z M60.475,42.8 C61.3583378,42.8 62.0749972,42.5250027 62.625,41.975 C63.1750028,41.4249972 63.45,40.683338 63.45,39.75 C63.45,38.816662 63.1750028,38.0750027 62.625,37.525 C62.0749972,36.9749973 61.3583378,36.7 60.475,36.7 C59.5916622,36.7 58.8750028,36.9749973 58.325,37.525 C57.7749972,38.0750027 57.5,38.816662 57.5,39.75 C57.5,40.683338 57.7749972,41.4249972 58.325,41.975 C58.8750028,42.5250027 59.5916622,42.8 60.475,42.8 Z M75.95,46.35 C74.0499905,46.35 72.4708396,45.716673 71.2125,44.45 C69.9541604,43.183327 69.325,41.616676 69.325,39.75 C69.325,37.883324 69.9541604,36.316673 71.2125,35.05 C72.4708396,33.783327 74.0499905,33.15 75.95,33.15 C77.150006,33.15 78.2541616,33.4416637 79.2625,34.025 C80.2708384,34.6083363 81.0499973,35.3833285 81.6,36.35 L78.325,38.25 C77.8749978,37.316662 77.0666725,36.85 75.9,36.85 C75.0833293,36.85 74.408336,37.1208306 73.875,37.6625 C73.341664,38.2041694 73.075,38.8999958 73.075,39.75 C73.075,40.6000042 73.341664,41.2958306 73.875,41.8375 C74.408336,42.3791694 75.0833293,42.65 75.9,42.65 C77.0833393,42.65 77.8916645,42.183338 78.325,41.25 L81.6,43.125 C81.0499973,44.1083383 80.275005,44.8916637 79.275,45.475 C78.274995,46.0583362 77.1666728,46.35 75.95,46.35 Z M85.1,32.4 C84.4833302,32.4 83.9541689,32.1791689 83.5125,31.7375 C83.0708311,31.2958311 82.85,30.7666697 82.85,30.15 C82.85,29.5333302 83.0708311,29.0041689 83.5125,28.5625 C83.9541689,28.1208311 84.4833302,27.9 85.1,27.9 C85.7166697,27.9 86.2458311,28.1208311 86.6875,28.5625 C87.1291689,29.0041689 87.35,29.5333302 87.35,30.15 C87.35,30.7666697 87.1291689,31.2958311 86.6875,31.7375 C86.2458311,32.1791689 85.7166697,32.4 85.1,32.4 Z M83.225,46 L83.225,33.5 L86.975,33.5 L86.975,46 L83.225,46 Z M89.725,46 L89.725,27.75 L93.475,27.75 L93.475,46 L89.725,46 Z M98.1,32.4 C97.4833303,32.4 96.9541689,32.1791689 96.5125,31.7375 C96.0708311,31.2958311 95.85,30.7666697 95.85,30.15 C95.85,29.5333302 96.0708311,29.0041689 96.5125,28.5625 C96.9541689,28.1208311 97.4833303,27.9 98.1,27.9 C98.7166697,27.9 99.2458311,28.1208311 99.6875,28.5625 C100.129169,29.0041689 100.35,29.5333302 100.35,30.15 C100.35,30.7666697 100.129169,31.2958311 99.6875,31.7375 C99.2458311,32.1791689 98.7166697,32.4 98.1,32.4 Z M96.225,46 L96.225,33.5 L99.975,33.5 L99.975,46 L96.225,46 Z M110.05,37.1 L107.475,37.1 L107.475,41.525 C107.475,42.0250025 107.674998,42.341666 108.075,42.475 C108.475002,42.608334 109.133329,42.6500002 110.05,42.6 L110.05,46 C107.666655,46.2500012 106.016671,46.0208369 105.1,45.3125 C104.183329,44.6041631 103.725,43.3416758 103.725,41.525 L103.725,37.1 L101.725,37.1 L101.725,33.5 L103.725,33.5 L103.725,31.125 L107.475,30 L107.475,33.5 L110.05,33.5 L110.05,37.1 Z M114.55,46.35 C113.899997,46.35 113.341669,46.116669 112.875,45.65 C112.408331,45.183331 112.175,44.6250032 112.175,43.975 C112.175,43.3249967 112.408331,42.766669 112.875,42.3 C113.341669,41.833331 113.899997,41.6 114.55,41.6 C115.200003,41.6 115.758331,41.833331 116.225,42.3 C116.691669,42.766669 116.925,43.3249967 116.925,43.975 C116.925,44.6250032 116.691669,45.183331 116.225,45.65 C115.758331,46.116669 115.200003,46.35 114.55,46.35 Z M121.3,32.4 C120.68333,32.4 120.154169,32.1791689 119.7125,31.7375 C119.270831,31.2958311 119.05,30.7666697 119.05,30.15 C119.05,29.5333302 119.270831,29.0041689 119.7125,28.5625 C120.154169,28.1208311 120.68333,27.9 121.3,27.9 C121.91667,27.9 122.445831,28.1208311 122.8875,28.5625 C123.329169,29.0041689 123.55,29.5333302 123.55,30.15 C123.55,30.7666697 123.329169,31.2958311 122.8875,31.7375 C122.445831,32.1791689 121.91667,32.4 121.3,32.4 Z M119.425,46 L119.425,33.5 L123.175,33.5 L123.175,46 L119.425,46 Z M131.925,46.35 C130.074991,46.35 128.50834,45.7125064 127.225,44.4375 C125.94166,43.1624936 125.3,41.6000092 125.3,39.75 C125.3,37.8999908 125.94166,36.3375064 127.225,35.0625 C128.50834,33.7874936 130.074991,33.15 131.925,33.15 C133.775009,33.15 135.34166,33.7874936 136.625,35.0625 C137.90834,36.3375064 138.55,37.8999908 138.55,39.75 C138.55,41.6000092 137.90834,43.1624936 136.625,44.4375 C135.34166,45.7125064 133.775009,46.35 131.925,46.35 Z M131.925,42.7 C132.741671,42.7 133.424997,42.4250028 133.975,41.875 C134.525003,41.3249973 134.8,40.616671 134.8,39.75 C134.8,38.883329 134.525003,38.1750028 133.975,37.625 C133.424997,37.0749972 132.741671,36.8 131.925,36.8 C131.108329,36.8 130.425003,37.0749972 129.875,37.625 C129.324997,38.1750028 129.05,38.883329 129.05,39.75 C129.05,40.616671 129.324997,41.3249973 129.875,41.875 C130.425003,42.4250028 131.108329,42.7 131.925,42.7 Z" id="Facilit.io"></path>
            </g>
        </g>
    </g>
</svg>